<svg width="33" height="33" viewBox="0 0 33 33" fill="none" xmlns="http://www.w3.org/2000/svg">
<g id="ant-design:facebook-filled" clip-path="url(#clip0_458_3407)">
<g id="Vector" filter="url(#filter0_d_458_3407)">
<path fill-rule="evenodd" clip-rule="evenodd" d="M32.3125 15.9093C32.3125 7.12264 25.2333 0 16.502 0C7.76666 0.00197632 0.6875 7.12264 0.6875 15.9113C0.6875 23.8502 6.4702 30.4313 14.0276 31.625V20.5082H10.0157V15.9113H14.0316V12.4034C14.0316 8.41713 16.3933 6.21551 20.004 6.21551C21.7353 6.21551 23.5436 6.52579 23.5436 6.52579V10.4389H21.5495C19.587 10.4389 18.9743 11.6662 18.9743 12.9251V15.9093H23.3578L22.6582 20.5063H18.9724V31.623C26.5298 30.4293 32.3125 23.8482 32.3125 15.9093Z" fill="#FAFAFA"/>
</g>
</g>
<defs>
<filter id="filter0_d_458_3407" x="-1.3125" y="-2" width="35.625" height="35.625" filterUnits="userSpaceOnUse" color-interpolation-filters="sRGB">
<feFlood flood-opacity="0" result="BackgroundImageFix"/>
<feColorMatrix in="SourceAlpha" type="matrix" values="0 0 0 0 0 0 0 0 0 0 0 0 0 0 0 0 0 0 127 0" result="hardAlpha"/>
<feOffset/>
<feGaussianBlur stdDeviation="1"/>
<feComposite in2="hardAlpha" operator="out"/>
<feColorMatrix type="matrix" values="0 0 0 0 0 0 0 0 0 0 0 0 0 0 0 0 0 0 0.35 0"/>
<feBlend mode="normal" in2="BackgroundImageFix" result="effect1_dropShadow_458_3407"/>
<feBlend mode="normal" in="SourceGraphic" in2="effect1_dropShadow_458_3407" result="shape"/>
</filter>
<clipPath id="clip0_458_3407">
<rect width="33" height="33" fill="white"/>
</clipPath>
</defs>
</svg>
