<svg width="36" height="34" viewBox="0 0 36 34" fill="none" xmlns="http://www.w3.org/2000/svg">
<g id="ant-design:instagram-outlined" clip-path="url(#clip0_458_3410)">
<g id="Vector" filter="url(#filter0_d_458_3410)">
<path d="M19 1C14.658 1 14.112 1.01938 12.406 1.093C10.7 1.1705 9.538 1.43012 8.52 1.81375C7.45219 2.20284 6.48498 2.81316 5.686 3.60206C4.87215 4.37647 4.24221 5.31334 3.84 6.3475C3.444 7.33175 3.174 8.45937 3.096 10.1062C3.02 11.7628 3 12.2898 3 16.5019C3 20.7102 3.02 21.2372 3.096 22.8899C3.176 24.5406 3.444 25.6663 3.84 26.6525C4.25 27.6716 4.796 28.5357 5.686 29.3979C6.574 30.2601 7.466 30.791 8.518 31.1863C9.538 31.5699 10.698 31.8314 12.402 31.907C14.11 31.9806 14.654 32 19 32C23.346 32 23.888 31.9806 25.596 31.907C27.298 31.8295 28.464 31.5699 29.482 31.1863C30.5491 30.797 31.5156 30.1866 32.314 29.3979C33.204 28.5357 33.75 27.6716 34.16 26.6525C34.554 25.6663 34.824 24.5406 34.904 22.8899C34.98 21.2372 35 20.7102 35 16.5C35 12.2898 34.98 11.7628 34.904 10.1082C34.824 8.45938 34.554 7.33175 34.16 6.3475C33.7578 5.31331 33.1279 4.37643 32.314 3.60206C31.5153 2.81287 30.548 2.2025 29.48 1.81375C28.46 1.43012 27.296 1.16856 25.594 1.093C23.886 1.01938 23.344 1 18.996 1H19.002H19ZM17.566 3.79387H19.002C23.274 3.79387 23.78 3.80744 25.466 3.883C27.026 3.95081 27.874 4.20462 28.438 4.41581C29.184 4.69675 29.718 5.03387 30.278 5.57638C30.838 6.11888 31.184 6.63425 31.474 7.35888C31.694 7.90331 31.954 8.72481 32.024 10.2361C32.102 11.8694 32.118 12.3596 32.118 16.4961C32.118 20.6327 32.102 21.1248 32.024 22.7581C31.954 24.2694 31.692 25.0889 31.474 25.6353C31.2175 26.3083 30.8081 26.9168 30.276 27.4159C29.716 27.9584 29.184 28.2936 28.436 28.5745C27.876 28.7876 27.028 29.0395 25.466 29.1092C23.78 29.1829 23.274 29.2003 19.002 29.2003C14.73 29.2003 14.222 29.1829 12.536 29.1092C10.976 29.0395 10.13 28.7876 9.566 28.5745C8.871 28.3263 8.24225 27.9304 7.726 27.4159C7.1935 26.9161 6.78345 26.307 6.526 25.6334C6.308 25.0889 6.046 24.2674 5.976 22.7562C5.9 21.1229 5.884 20.6327 5.884 16.4922C5.884 12.3538 5.9 11.8655 5.976 10.2322C6.048 8.72094 6.308 7.89944 6.528 7.35306C6.818 6.63037 7.166 6.11306 7.726 5.57056C8.286 5.02806 8.818 4.69287 9.566 4.41194C10.13 4.19881 10.976 3.94694 12.536 3.87719C14.012 3.81131 14.584 3.79194 17.566 3.79V3.79387ZM27.542 6.36687C27.2899 6.36687 27.0402 6.41499 26.8072 6.50846C26.5743 6.60193 26.3626 6.73894 26.1844 6.91166C26.0061 7.08437 25.8646 7.28942 25.7682 7.51508C25.6717 7.74075 25.622 7.98262 25.622 8.22687C25.622 8.47113 25.6717 8.713 25.7682 8.93867C25.8646 9.16433 26.0061 9.36938 26.1844 9.54209C26.3626 9.71481 26.5743 9.85182 26.8072 9.94529C27.0402 10.0388 27.2899 10.0869 27.542 10.0869C28.0512 10.0869 28.5396 9.89091 28.8996 9.54209C29.2597 9.19328 29.462 8.72018 29.462 8.22687C29.462 7.73357 29.2597 7.26047 28.8996 6.91166C28.5396 6.56284 28.0512 6.36687 27.542 6.36687ZM19.002 8.54075C17.9121 8.52428 16.8298 8.718 15.818 9.11065C14.8061 9.50329 13.885 10.087 13.1083 10.8278C12.3316 11.5686 11.7147 12.4517 11.2937 13.4257C10.8726 14.3997 10.6558 15.445 10.6558 16.501C10.6558 17.5569 10.8726 18.6023 11.2937 19.5762C11.7147 20.5502 12.3316 21.4333 13.1083 22.1741C13.885 22.9149 14.8061 23.4986 15.818 23.8913C16.8298 24.2839 17.9121 24.4777 19.002 24.4612C21.1591 24.4286 23.2164 23.5756 24.73 22.0863C26.2435 20.597 27.0918 18.5909 27.0918 16.501C27.0918 14.411 26.2435 12.4049 24.73 10.9156C23.2164 9.42636 21.1591 8.57335 19.002 8.54075ZM19.002 11.3327C20.4167 11.3327 21.7734 11.8771 22.7737 12.8462C23.774 13.8152 24.336 15.1295 24.336 16.5C24.336 17.8705 23.774 19.1848 22.7737 20.1538C21.7734 21.1229 20.4167 21.6673 19.002 21.6673C17.5873 21.6673 16.2306 21.1229 15.2303 20.1538C14.23 19.1848 13.668 17.8705 13.668 16.5C13.668 15.1295 14.23 13.8152 15.2303 12.8462C16.2306 11.8771 17.5873 11.3327 19.002 11.3327Z" fill="#FAFAFA"/>
</g>
</g>
<defs>
<filter id="filter0_d_458_3410" x="1" y="-1" width="36" height="35" filterUnits="userSpaceOnUse" color-interpolation-filters="sRGB">
<feFlood flood-opacity="0" result="BackgroundImageFix"/>
<feColorMatrix in="SourceAlpha" type="matrix" values="0 0 0 0 0 0 0 0 0 0 0 0 0 0 0 0 0 0 127 0" result="hardAlpha"/>
<feOffset/>
<feGaussianBlur stdDeviation="1"/>
<feComposite in2="hardAlpha" operator="out"/>
<feColorMatrix type="matrix" values="0 0 0 0 0 0 0 0 0 0 0 0 0 0 0 0 0 0 0.35 0"/>
<feBlend mode="normal" in2="BackgroundImageFix" result="effect1_dropShadow_458_3410"/>
<feBlend mode="normal" in="SourceGraphic" in2="effect1_dropShadow_458_3410" result="shape"/>
</filter>
<clipPath id="clip0_458_3410">
<rect width="35" height="35" fill="white" transform="translate(0.5)"/>
</clipPath>
</defs>
</svg>
